<svg width="20" height="20" viewBox="0 0 20 20" fill="none" xmlns="http://www.w3.org/2000/svg">
<path fill-rule="evenodd" clip-rule="evenodd" d="M2.5 3.33333C2.5 2.8731 2.8731 2.5 3.33333 2.5C7.09057 2.5 10.6939 3.99256 13.3507 6.64932C16.0074 9.30609 17.5 12.9094 17.5 16.6667C17.5 17.1269 17.1269 17.5 16.6667 17.5C16.2064 17.5 15.8333 17.1269 15.8333 16.6667C15.8333 13.3515 14.5164 10.172 12.1722 7.82783C9.82796 5.48363 6.64854 4.16667 3.33333 4.16667C2.8731 4.16667 2.5 3.79357 2.5 3.33333ZM2.5 9.16667C2.5 8.70643 2.8731 8.33333 3.33333 8.33333C5.54347 8.33333 7.66309 9.21131 9.22589 10.7741C10.7887 12.3369 11.6667 14.4565 11.6667 16.6667C11.6667 17.1269 11.2936 17.5 10.8333 17.5C10.3731 17.5 10 17.1269 10 16.6667C10 14.8986 9.29762 13.2029 8.04738 11.9526C6.79714 10.7024 5.10144 10 3.33333 10C2.8731 10 2.5 9.6269 2.5 9.16667ZM4.16667 14.1667C3.24619 14.1667 2.5 14.9129 2.5 15.8333C2.5 16.7538 3.24619 17.5 4.16667 17.5C5.08714 17.5 5.83333 16.7538 5.83333 15.8333C5.83333 14.9129 5.08714 14.1667 4.16667 14.1667Z" fill="#5F7896"/>
</svg>
